<svg width="710" height="710" viewBox="0 0 710 710" fill="none" xmlns="http://www.w3.org/2000/svg">
<rect width="710" height="710" rx="14" fill="white"/>
<mask id="mask0_5_121" style="mask-type:alpha" maskUnits="userSpaceOnUse" x="39" y="39" width="632" height="632">
<rect x="39.5" y="39.5" width="631" height="631" rx="17.5" fill="white" stroke="black"/>
</mask>
<g mask="url(#mask0_5_121)">
<rect x="39.5" y="39.5" width="631" height="631" rx="17.5" stroke="black"/>
<path d="M670 670C661.727 670 653.534 668.37 645.891 665.204C638.247 662.038 631.302 657.398 625.452 651.548C619.602 645.698 614.962 638.753 611.796 631.109C608.63 623.466 607 615.273 607 607C607 598.727 608.63 590.534 611.796 582.891C614.962 575.247 619.602 568.302 625.452 562.452C631.302 556.602 638.247 551.962 645.891 548.796C653.534 545.63 661.727 544 670 544L670 607L670 670Z" fill="#0B1347"/>
<path d="M544 544C552.273 544 560.466 545.63 568.109 548.796C575.753 551.962 582.698 556.602 588.548 562.452C594.398 568.302 599.038 575.247 602.204 582.891C605.37 590.534 607 598.727 607 607C607 615.273 605.37 623.466 602.204 631.109C599.038 638.753 594.398 645.698 588.548 651.548C582.698 657.398 575.753 662.038 568.109 665.204C560.466 668.37 552.273 670 544 670L544 607L544 544Z" fill="#F23342"/>
<path d="M481 670C481 653.291 487.637 637.267 499.452 625.452C511.267 613.637 527.291 607 544 607V670L481 670Z" fill="#F23342"/>
<path d="M481 670C481 653.291 474.363 637.267 462.548 625.452C450.733 613.637 434.709 607 418 607V670L481 670Z" fill="#E86023"/>
<path d="M670 481C661.727 481 653.534 479.37 645.891 476.204C638.247 473.038 631.302 468.398 625.452 462.548C619.602 456.698 614.962 449.753 611.796 442.109C608.63 434.465 607 426.273 607 418L670 418L670 481Z" fill="#05C4CE"/>
<circle cx="638.5" cy="512.5" r="31.5" fill="#3B2675"/>
<path fill-rule="evenodd" clip-rule="evenodd" d="M141.891 296.796C149.534 293.63 157.727 292 166 292V355C166 363.273 164.37 371.466 161.204 379.109C158.038 386.753 153.398 393.698 147.548 399.548C141.698 405.398 134.753 410.038 127.109 413.204C119.466 416.37 111.273 418 103 418L103 355C103 346.727 104.63 338.534 107.796 330.891C110.962 323.247 115.602 316.302 121.452 310.452C127.302 304.602 134.247 299.962 141.891 296.796Z" fill="#05C4CE"/>
<path fill-rule="evenodd" clip-rule="evenodd" d="M98.2044 330.891C101.37 338.534 103 346.727 103 355L103 418C94.7267 418 86.5345 416.37 78.891 413.204C71.2475 410.038 64.3024 405.398 58.4523 399.548C52.6022 393.698 47.9617 386.753 44.7956 379.109C41.6296 371.466 40 363.273 40 355L40 292C48.2733 292 56.4655 293.63 64.109 296.796C71.7526 299.962 78.6976 304.602 84.5477 310.452C90.3978 316.302 95.0384 323.247 98.2044 330.891Z" fill="#05C4CE"/>
<path fill-rule="evenodd" clip-rule="evenodd" d="M103 40C68.2061 40 40 68.2061 40 103C40 137.794 68.2061 166 103 166H166V40H103ZM103 144C125.644 144 144 125.644 144 103C144 80.3563 125.644 62 103 62C80.3563 62 62 80.3563 62 103C62 125.644 80.3563 144 103 144Z" fill="#F23342"/>
<circle cx="229" cy="103" r="63" fill="#0B1347"/>
<rect x="292" y="166" width="126" height="126" fill="#EA9E24"/>
<circle cx="355" cy="229" r="46" fill="#3B2675"/>
<path d="M229 355C220.727 355 212.534 356.63 204.891 359.796C197.247 362.962 190.302 367.602 184.452 373.452C178.602 379.302 173.962 386.247 170.796 393.891C167.63 401.534 166 409.727 166 418L229 418L229 355Z" fill="#3B2675"/>
<path d="M292 355C283.727 355 275.534 356.63 267.891 359.796C260.247 362.962 253.302 367.602 247.452 373.452C241.602 379.302 236.962 386.247 233.796 393.891C230.63 401.534 229 409.727 229 418L292 418L292 355Z" fill="#0B1347"/>
<path d="M292 292C283.727 292 275.534 293.63 267.891 296.796C260.247 299.962 253.302 304.602 247.452 310.452C241.602 316.302 236.962 323.247 233.796 330.891C230.63 338.534 229 346.727 229 355L292 355L292 292Z" fill="#EA9E24"/>
<path d="M229 292C220.727 292 212.534 293.63 204.891 296.796C197.247 299.962 190.302 304.602 184.452 310.452C178.602 316.302 173.962 323.247 170.796 330.891C167.63 338.534 166 346.727 166 355L229 355L229 292Z" fill="#0B1347"/>
<path d="M481 103C472.727 103 464.534 104.63 456.891 107.796C449.247 110.962 442.302 115.602 436.452 121.452C430.602 127.302 425.962 134.247 422.796 141.891C419.63 149.534 418 157.727 418 166L481 166L481 103Z" fill="#3B2675"/>
<path d="M544 103C535.727 103 527.534 104.63 519.891 107.796C512.247 110.962 505.302 115.602 499.452 121.452C493.602 127.302 488.962 134.247 485.796 141.891C482.63 149.534 481 157.727 481 166L544 166L544 103Z" fill="#EA9E24"/>
<path d="M544 40C535.727 40 527.534 41.6295 519.891 44.7956C512.247 47.9616 505.302 52.6022 499.452 58.4523C493.602 64.3024 488.962 71.2474 485.796 78.891C482.63 86.5345 481 94.7267 481 103L544 103L544 40Z" fill="#3B2675"/>
<path d="M481 40C472.727 40 464.534 41.6295 456.891 44.7956C449.247 47.9616 442.302 52.6022 436.452 58.4523C430.602 64.3024 425.962 71.2474 422.796 78.891C419.63 86.5345 418 94.7267 418 103L481 103L481 40Z" fill="#E86023"/>
<path d="M292 229C292 237.273 290.37 245.466 287.204 253.109C284.038 260.753 279.398 267.698 273.548 273.548C267.698 279.398 260.753 284.038 253.109 287.204C245.466 290.37 237.273 292 229 292C220.727 292 212.534 290.37 204.891 287.204C197.247 284.038 190.302 279.398 184.452 273.548C178.602 267.698 173.962 260.753 170.796 253.109C167.63 245.466 166 237.273 166 229L229 229H292Z" fill="#F23342"/>
<path d="M292 166C292 174.273 290.37 182.466 287.204 190.109C284.038 197.753 279.398 204.698 273.548 210.548C267.698 216.398 260.753 221.038 253.109 224.204C245.466 227.37 237.273 229 229 229C220.727 229 212.534 227.37 204.891 224.204C197.247 221.038 190.302 216.398 184.452 210.548C178.602 204.698 173.962 197.753 170.796 190.109C167.63 182.466 166 174.273 166 166L229 166H292Z" fill="#0B1347"/>
<path d="M166 418C166 426.273 164.37 434.466 161.204 442.109C158.038 449.753 153.398 456.698 147.548 462.548C141.698 468.398 134.753 473.038 127.109 476.204C119.466 479.37 111.273 481 103 481C94.7267 481 86.5345 479.37 78.8909 476.204C71.2474 473.038 64.3024 468.398 58.4523 462.548C52.6022 456.698 47.9616 449.753 44.7956 442.109C41.6295 434.466 40 426.273 40 418L103 418H166Z" fill="#0B1347"/>
<path d="M40 544C40 535.727 41.6295 527.534 44.7956 519.891C47.9616 512.247 52.6022 505.302 58.4523 499.452C64.3024 493.602 71.2474 488.962 78.8909 485.796C86.5345 482.63 94.7267 481 103 481C111.273 481 119.466 482.63 127.109 485.796C134.753 488.962 141.698 493.602 147.548 499.452C153.398 505.302 158.038 512.247 161.204 519.891C164.37 527.534 166 535.727 166 544L103 544H40Z" fill="#E86023"/>
<path d="M103 607C94.7267 607 86.5345 605.37 78.8909 602.204C71.2474 599.038 64.3024 594.398 58.4523 588.548C52.6022 582.698 47.9616 575.753 44.7956 568.109C41.6295 560.466 40 552.273 40 544L103 544L103 607Z" fill="#05C4CE"/>
<path d="M102.992 229L166.014 292H39.9697L102.992 229Z" fill="#E86023"/>
<path d="M102.992 166L166.014 229H39.9697L102.992 166Z" fill="#3B2675"/>
<path fill-rule="evenodd" clip-rule="evenodd" d="M363.88 40L292 166H346.12L418 40H363.88Z" fill="#05C4CE"/>
</g>
</svg>
