<svg width="200" height="200" viewBox="0 0 200 200" fill="none" xmlns="http://www.w3.org/2000/svg">
<rect width="200" height="200" fill="#1E1E1E"/>
<rect width="200" height="200" fill="#FDFDF4"/>
<g filter="url(#filter0_d_0_1)">
<rect x="12" y="10" width="176" height="179" rx="8" fill="#ECF1E3"/>
</g>
<rect x="12" y="142" width="176" height="1" fill="#DFE5D6"/>
<path d="M60.9375 156.625V168H59.4297V156.625H60.9375ZM67 159.547V160.656H62.4297V159.547H67ZM63.9766 157.492H65.4219V165.906C65.4219 166.193 65.4661 166.409 65.5547 166.555C65.6432 166.701 65.7578 166.797 65.8984 166.844C66.0391 166.891 66.1901 166.914 66.3516 166.914C66.4714 166.914 66.5964 166.904 66.7266 166.883C66.862 166.857 66.9635 166.836 67.0312 166.82L67.0391 168C66.9245 168.036 66.7734 168.07 66.5859 168.102C66.4036 168.138 66.1823 168.156 65.9219 168.156C65.5677 168.156 65.2422 168.086 64.9453 167.945C64.6484 167.805 64.4115 167.57 64.2344 167.242C64.0625 166.909 63.9766 166.461 63.9766 165.898V157.492ZM72.2031 168.156C71.6146 168.156 71.0807 168.057 70.6016 167.859C70.1276 167.656 69.7188 167.372 69.375 167.008C69.0365 166.643 68.776 166.211 68.5938 165.711C68.4115 165.211 68.3203 164.664 68.3203 164.07V163.742C68.3203 163.055 68.4219 162.443 68.625 161.906C68.8281 161.365 69.1042 160.906 69.4531 160.531C69.8021 160.156 70.1979 159.872 70.6406 159.68C71.0833 159.487 71.5417 159.391 72.0156 159.391C72.6198 159.391 73.1406 159.495 73.5781 159.703C74.0208 159.911 74.3828 160.203 74.6641 160.578C74.9453 160.948 75.1536 161.385 75.2891 161.891C75.4245 162.391 75.4922 162.938 75.4922 163.531V164.18H69.1797V163H74.0469V162.891C74.026 162.516 73.9479 162.151 73.8125 161.797C73.6823 161.443 73.474 161.151 73.1875 160.922C72.901 160.693 72.5104 160.578 72.0156 160.578C71.6875 160.578 71.3854 160.648 71.1094 160.789C70.8333 160.924 70.5964 161.128 70.3984 161.398C70.2005 161.669 70.0469 162 69.9375 162.391C69.8281 162.781 69.7734 163.232 69.7734 163.742V164.07C69.7734 164.471 69.8281 164.849 69.9375 165.203C70.0521 165.552 70.2161 165.859 70.4297 166.125C70.6484 166.391 70.9115 166.599 71.2188 166.75C71.5312 166.901 71.8854 166.977 72.2812 166.977C72.7917 166.977 73.224 166.872 73.5781 166.664C73.9323 166.456 74.2422 166.177 74.5078 165.828L75.3828 166.523C75.2005 166.799 74.9688 167.062 74.6875 167.312C74.4062 167.562 74.0599 167.766 73.6484 167.922C73.2422 168.078 72.7604 168.156 72.2031 168.156ZM78.6172 161.227V168H77.1641V159.547H78.5391L78.6172 161.227ZM78.3203 163.453L77.6484 163.43C77.6536 162.852 77.7292 162.318 77.875 161.828C78.0208 161.333 78.237 160.904 78.5234 160.539C78.8099 160.174 79.1667 159.893 79.5938 159.695C80.0208 159.492 80.5156 159.391 81.0781 159.391C81.474 159.391 81.8385 159.448 82.1719 159.562C82.5052 159.672 82.7943 159.846 83.0391 160.086C83.2839 160.326 83.474 160.633 83.6094 161.008C83.7448 161.383 83.8125 161.836 83.8125 162.367V168H82.3672V162.438C82.3672 161.995 82.2917 161.641 82.1406 161.375C81.9948 161.109 81.7865 160.917 81.5156 160.797C81.2448 160.672 80.9271 160.609 80.5625 160.609C80.1354 160.609 79.7786 160.685 79.4922 160.836C79.2057 160.987 78.9766 161.195 78.8047 161.461C78.6328 161.727 78.5078 162.031 78.4297 162.375C78.3568 162.714 78.3203 163.073 78.3203 163.453ZM83.7969 162.656L82.8281 162.953C82.8333 162.49 82.9089 162.044 83.0547 161.617C83.2057 161.19 83.4219 160.81 83.7031 160.477C83.9896 160.143 84.3411 159.88 84.7578 159.688C85.1745 159.49 85.651 159.391 86.1875 159.391C86.6406 159.391 87.0417 159.451 87.3906 159.57C87.7448 159.69 88.0417 159.875 88.2812 160.125C88.526 160.37 88.7109 160.685 88.8359 161.07C88.9609 161.456 89.0234 161.914 89.0234 162.445V168H87.5703V162.43C87.5703 161.956 87.4948 161.589 87.3438 161.328C87.1979 161.062 86.9896 160.878 86.7188 160.773C86.4531 160.664 86.1354 160.609 85.7656 160.609C85.4479 160.609 85.1667 160.664 84.9219 160.773C84.6771 160.883 84.4714 161.034 84.3047 161.227C84.138 161.414 84.0104 161.63 83.9219 161.875C83.8385 162.12 83.7969 162.38 83.7969 162.656ZM102.711 164.172V165.359H94.4922V164.508L99.5859 156.625H100.766L99.5 158.906L96.1328 164.172H102.711ZM101.125 156.625V168H99.6797V156.625H101.125Z" fill="black"/>
<path d="M28.5 169C26.9833 169 25.6875 168.475 24.6125 167.425C23.5375 166.375 23 165.092 23 163.575C23 162.275 23.3917 161.117 24.175 160.1C24.9583 159.083 25.9833 158.433 27.25 158.15C27.6667 156.617 28.5 155.375 29.75 154.425C31 153.475 32.4167 153 34 153C35.95 153 37.6042 153.679 38.9625 155.038C40.3208 156.396 41 158.05 41 160C42.15 160.133 43.1042 160.629 43.8625 161.488C44.6208 162.346 45 163.35 45 164.5C45 165.75 44.5625 166.813 43.6875 167.688C42.8125 168.563 41.75 169 40.5 169H28.5Z" fill="#42483D"/>
<path d="M167 166V156L172 161L167 166Z" fill="#42483D"/>
<path d="M34 42C35.25 42 36.3125 41.5625 37.1875 40.6875C38.0625 39.8125 38.5 38.75 38.5 37.5C38.5 36.25 38.0625 35.1875 37.1875 34.3125C36.3125 33.4375 35.25 33 34 33C32.75 33 31.6875 33.4375 30.8125 34.3125C29.9375 35.1875 29.5 36.25 29.5 37.5C29.5 38.75 29.9375 39.8125 30.8125 40.6875C31.6875 41.5625 32.75 42 34 42ZM34 40.2C33.25 40.2 32.6125 39.9375 32.0875 39.4125C31.5625 38.8875 31.3 38.25 31.3 37.5C31.3 36.75 31.5625 36.1125 32.0875 35.5875C32.6125 35.0625 33.25 34.8 34 34.8C34.75 34.8 35.3875 35.0625 35.9125 35.5875C36.4375 36.1125 36.7 36.75 36.7 37.5C36.7 38.25 36.4375 38.8875 35.9125 39.4125C35.3875 39.9375 34.75 40.2 34 40.2ZM34 45C31.5667 45 29.35 44.3208 27.35 42.9625C25.35 41.6042 23.9 39.7833 23 37.5C23.9 35.2167 25.35 33.3958 27.35 32.0375C29.35 30.6792 31.5667 30 34 30C36.4333 30 38.65 30.6792 40.65 32.0375C42.65 33.3958 44.1 35.2167 45 37.5C44.1 39.7833 42.65 41.6042 40.65 42.9625C38.65 44.3208 36.4333 45 34 45ZM34 43C35.8833 43 37.6125 42.5042 39.1875 41.5125C40.7625 40.5208 41.9667 39.1833 42.8 37.5C41.9667 35.8167 40.7625 34.4792 39.1875 33.4875C37.6125 32.4958 35.8833 32 34 32C32.1167 32 30.3875 32.4958 28.8125 33.4875C27.2375 34.4792 26.0333 35.8167 25.2 37.5C26.0333 39.1833 27.2375 40.5208 28.8125 41.5125C30.3875 42.5042 32.1167 43 34 43Z" fill="#42483D"/>
<path d="M31 85C30.45 85 29.9792 84.8042 29.5875 84.4125C29.1958 84.0208 29 83.55 29 83V71C29 70.45 29.1958 69.9792 29.5875 69.5875C29.9792 69.1958 30.45 69 31 69H40C40.55 69 41.0208 69.1958 41.4125 69.5875C41.8042 69.9792 42 70.45 42 71V83C42 83.55 41.8042 84.0208 41.4125 84.4125C41.0208 84.8042 40.55 85 40 85H31ZM31 83H40V71H31V83ZM27 89C26.45 89 25.9792 88.8042 25.5875 88.4125C25.1958 88.0208 25 87.55 25 87V73H27V87H38V89H27Z" fill="#42483D"/>
<path d="M27 127H28.425L38.2 117.225L36.775 115.8L27 125.575V127ZM25 129V124.75L38.2 111.575C38.4 111.392 38.6208 111.25 38.8625 111.15C39.1042 111.05 39.3583 111 39.625 111C39.8917 111 40.15 111.05 40.4 111.15C40.65 111.25 40.8667 111.4 41.05 111.6L42.425 113C42.625 113.183 42.7708 113.4 42.8625 113.65C42.9542 113.9 43 114.15 43 114.4C43 114.667 42.9542 114.921 42.8625 115.163C42.7708 115.404 42.625 115.625 42.425 115.825L29.25 129H25ZM37.475 116.525L36.775 115.8L38.2 117.225L37.475 116.525Z" fill="#42483D"/>
<path d="M60.9375 32.625V44H59.4297V32.625H60.9375ZM67 35.5469V36.6562H62.4297V35.5469H67ZM63.9766 33.4922H65.4219V41.9062C65.4219 42.1927 65.4661 42.4089 65.5547 42.5547C65.6432 42.7005 65.7578 42.7969 65.8984 42.8438C66.0391 42.8906 66.1901 42.9141 66.3516 42.9141C66.4714 42.9141 66.5964 42.9036 66.7266 42.8828C66.862 42.8568 66.9635 42.8359 67.0312 42.8203L67.0391 44C66.9245 44.0365 66.7734 44.0703 66.5859 44.1016C66.4036 44.138 66.1823 44.1562 65.9219 44.1562C65.5677 44.1562 65.2422 44.0859 64.9453 43.9453C64.6484 43.8047 64.4115 43.5703 64.2344 43.2422C64.0625 42.9089 63.9766 42.4609 63.9766 41.8984V33.4922ZM72.2031 44.1562C71.6146 44.1562 71.0807 44.0573 70.6016 43.8594C70.1276 43.6562 69.7188 43.3724 69.375 43.0078C69.0365 42.6432 68.776 42.2109 68.5938 41.7109C68.4115 41.2109 68.3203 40.6641 68.3203 40.0703V39.7422C68.3203 39.0547 68.4219 38.4427 68.625 37.9062C68.8281 37.3646 69.1042 36.9062 69.4531 36.5312C69.8021 36.1562 70.1979 35.8724 70.6406 35.6797C71.0833 35.487 71.5417 35.3906 72.0156 35.3906C72.6198 35.3906 73.1406 35.4948 73.5781 35.7031C74.0208 35.9115 74.3828 36.2031 74.6641 36.5781C74.9453 36.9479 75.1536 37.3854 75.2891 37.8906C75.4245 38.3906 75.4922 38.9375 75.4922 39.5312V40.1797H69.1797V39H74.0469V38.8906C74.026 38.5156 73.9479 38.151 73.8125 37.7969C73.6823 37.4427 73.474 37.151 73.1875 36.9219C72.901 36.6927 72.5104 36.5781 72.0156 36.5781C71.6875 36.5781 71.3854 36.6484 71.1094 36.7891C70.8333 36.9245 70.5964 37.1276 70.3984 37.3984C70.2005 37.6693 70.0469 38 69.9375 38.3906C69.8281 38.7812 69.7734 39.2318 69.7734 39.7422V40.0703C69.7734 40.4714 69.8281 40.849 69.9375 41.2031C70.0521 41.5521 70.2161 41.8594 70.4297 42.125C70.6484 42.3906 70.9115 42.599 71.2188 42.75C71.5312 42.901 71.8854 42.9766 72.2812 42.9766C72.7917 42.9766 73.224 42.8724 73.5781 42.6641C73.9323 42.4557 74.2422 42.1771 74.5078 41.8281L75.3828 42.5234C75.2005 42.7995 74.9688 43.0625 74.6875 43.3125C74.4062 43.5625 74.0599 43.7656 73.6484 43.9219C73.2422 44.0781 72.7604 44.1562 72.2031 44.1562ZM78.6172 37.2266V44H77.1641V35.5469H78.5391L78.6172 37.2266ZM78.3203 39.4531L77.6484 39.4297C77.6536 38.8516 77.7292 38.3177 77.875 37.8281C78.0208 37.3333 78.237 36.9036 78.5234 36.5391C78.8099 36.1745 79.1667 35.8932 79.5938 35.6953C80.0208 35.4922 80.5156 35.3906 81.0781 35.3906C81.474 35.3906 81.8385 35.4479 82.1719 35.5625C82.5052 35.6719 82.7943 35.8464 83.0391 36.0859C83.2839 36.3255 83.474 36.6328 83.6094 37.0078C83.7448 37.3828 83.8125 37.8359 83.8125 38.3672V44H82.3672V38.4375C82.3672 37.9948 82.2917 37.6406 82.1406 37.375C81.9948 37.1094 81.7865 36.9167 81.5156 36.7969C81.2448 36.6719 80.9271 36.6094 80.5625 36.6094C80.1354 36.6094 79.7786 36.6849 79.4922 36.8359C79.2057 36.987 78.9766 37.1953 78.8047 37.4609C78.6328 37.7266 78.5078 38.0312 78.4297 38.375C78.3568 38.7135 78.3203 39.0729 78.3203 39.4531ZM83.7969 38.6562L82.8281 38.9531C82.8333 38.4896 82.9089 38.0443 83.0547 37.6172C83.2057 37.1901 83.4219 36.8099 83.7031 36.4766C83.9896 36.1432 84.3411 35.8802 84.7578 35.6875C85.1745 35.4896 85.651 35.3906 86.1875 35.3906C86.6406 35.3906 87.0417 35.4505 87.3906 35.5703C87.7448 35.6901 88.0417 35.875 88.2812 36.125C88.526 36.3698 88.7109 36.6849 88.8359 37.0703C88.9609 37.4557 89.0234 37.9141 89.0234 38.4453V44H87.5703V38.4297C87.5703 37.9557 87.4948 37.5885 87.3438 37.3281C87.1979 37.0625 86.9896 36.8776 86.7188 36.7734C86.4531 36.6641 86.1354 36.6094 85.7656 36.6094C85.4479 36.6094 85.1667 36.6641 84.9219 36.7734C84.6771 36.8828 84.4714 37.0339 84.3047 37.2266C84.138 37.4141 84.0104 37.6302 83.9219 37.875C83.8385 38.1198 83.7969 38.3802 83.7969 38.6562ZM99.7734 32.5625V44H98.3281V34.3672L95.4141 35.4297V34.125L99.5469 32.5625H99.7734Z" fill="black"/>
<path d="M60.9375 72.625V84H59.4297V72.625H60.9375ZM67 75.5469V76.6562H62.4297V75.5469H67ZM63.9766 73.4922H65.4219V81.9062C65.4219 82.1927 65.4661 82.4089 65.5547 82.5547C65.6432 82.7005 65.7578 82.7969 65.8984 82.8438C66.0391 82.8906 66.1901 82.9141 66.3516 82.9141C66.4714 82.9141 66.5964 82.9036 66.7266 82.8828C66.862 82.8568 66.9635 82.8359 67.0312 82.8203L67.0391 84C66.9245 84.0365 66.7734 84.0703 66.5859 84.1016C66.4036 84.138 66.1823 84.1562 65.9219 84.1562C65.5677 84.1562 65.2422 84.0859 64.9453 83.9453C64.6484 83.8047 64.4115 83.5703 64.2344 83.2422C64.0625 82.9089 63.9766 82.4609 63.9766 81.8984V73.4922ZM72.2031 84.1562C71.6146 84.1562 71.0807 84.0573 70.6016 83.8594C70.1276 83.6562 69.7188 83.3724 69.375 83.0078C69.0365 82.6432 68.776 82.2109 68.5938 81.7109C68.4115 81.2109 68.3203 80.6641 68.3203 80.0703V79.7422C68.3203 79.0547 68.4219 78.4427 68.625 77.9062C68.8281 77.3646 69.1042 76.9062 69.4531 76.5312C69.8021 76.1562 70.1979 75.8724 70.6406 75.6797C71.0833 75.487 71.5417 75.3906 72.0156 75.3906C72.6198 75.3906 73.1406 75.4948 73.5781 75.7031C74.0208 75.9115 74.3828 76.2031 74.6641 76.5781C74.9453 76.9479 75.1536 77.3854 75.2891 77.8906C75.4245 78.3906 75.4922 78.9375 75.4922 79.5312V80.1797H69.1797V79H74.0469V78.8906C74.026 78.5156 73.9479 78.151 73.8125 77.7969C73.6823 77.4427 73.474 77.151 73.1875 76.9219C72.901 76.6927 72.5104 76.5781 72.0156 76.5781C71.6875 76.5781 71.3854 76.6484 71.1094 76.7891C70.8333 76.9245 70.5964 77.1276 70.3984 77.3984C70.2005 77.6693 70.0469 78 69.9375 78.3906C69.8281 78.7812 69.7734 79.2318 69.7734 79.7422V80.0703C69.7734 80.4714 69.8281 80.849 69.9375 81.2031C70.0521 81.5521 70.2161 81.8594 70.4297 82.125C70.6484 82.3906 70.9115 82.599 71.2188 82.75C71.5312 82.901 71.8854 82.9766 72.2812 82.9766C72.7917 82.9766 73.224 82.8724 73.5781 82.6641C73.9323 82.4557 74.2422 82.1771 74.5078 81.8281L75.3828 82.5234C75.2005 82.7995 74.9688 83.0625 74.6875 83.3125C74.4062 83.5625 74.0599 83.7656 73.6484 83.9219C73.2422 84.0781 72.7604 84.1562 72.2031 84.1562ZM78.6172 77.2266V84H77.1641V75.5469H78.5391L78.6172 77.2266ZM78.3203 79.4531L77.6484 79.4297C77.6536 78.8516 77.7292 78.3177 77.875 77.8281C78.0208 77.3333 78.237 76.9036 78.5234 76.5391C78.8099 76.1745 79.1667 75.8932 79.5938 75.6953C80.0208 75.4922 80.5156 75.3906 81.0781 75.3906C81.474 75.3906 81.8385 75.4479 82.1719 75.5625C82.5052 75.6719 82.7943 75.8464 83.0391 76.0859C83.2839 76.3255 83.474 76.6328 83.6094 77.0078C83.7448 77.3828 83.8125 77.8359 83.8125 78.3672V84H82.3672V78.4375C82.3672 77.9948 82.2917 77.6406 82.1406 77.375C81.9948 77.1094 81.7865 76.9167 81.5156 76.7969C81.2448 76.6719 80.9271 76.6094 80.5625 76.6094C80.1354 76.6094 79.7786 76.6849 79.4922 76.8359C79.2057 76.987 78.9766 77.1953 78.8047 77.4609C78.6328 77.7266 78.5078 78.0312 78.4297 78.375C78.3568 78.7135 78.3203 79.0729 78.3203 79.4531ZM83.7969 78.6562L82.8281 78.9531C82.8333 78.4896 82.9089 78.0443 83.0547 77.6172C83.2057 77.1901 83.4219 76.8099 83.7031 76.4766C83.9896 76.1432 84.3411 75.8802 84.7578 75.6875C85.1745 75.4896 85.651 75.3906 86.1875 75.3906C86.6406 75.3906 87.0417 75.4505 87.3906 75.5703C87.7448 75.6901 88.0417 75.875 88.2812 76.125C88.526 76.3698 88.7109 76.6849 88.8359 77.0703C88.9609 77.4557 89.0234 77.9141 89.0234 78.4453V84H87.5703V78.4297C87.5703 77.9557 87.4948 77.5885 87.3438 77.3281C87.1979 77.0625 86.9896 76.8776 86.7188 76.7734C86.4531 76.6641 86.1354 76.6094 85.7656 76.6094C85.4479 76.6094 85.1667 76.6641 84.9219 76.7734C84.6771 76.8828 84.4714 77.0339 84.3047 77.2266C84.138 77.4141 84.0104 77.6302 83.9219 77.875C83.8385 78.1198 83.7969 78.3802 83.7969 78.6562ZM102.477 82.8125V84H95.0312V82.9609L98.7578 78.8125C99.2161 78.3021 99.5703 77.8698 99.8203 77.5156C100.076 77.1562 100.253 76.8359 100.352 76.5547C100.456 76.2682 100.508 75.9766 100.508 75.6797C100.508 75.3047 100.43 74.9661 100.273 74.6641C100.122 74.3568 99.8984 74.112 99.6016 73.9297C99.3047 73.7474 98.9453 73.6562 98.5234 73.6562C98.0182 73.6562 97.5964 73.7552 97.2578 73.9531C96.9245 74.1458 96.6745 74.4167 96.5078 74.7656C96.3411 75.1146 96.2578 75.5156 96.2578 75.9688H94.8125C94.8125 75.3281 94.9531 74.7422 95.2344 74.2109C95.5156 73.6797 95.9323 73.2578 96.4844 72.9453C97.0365 72.6276 97.7161 72.4688 98.5234 72.4688C99.2422 72.4688 99.8568 72.5964 100.367 72.8516C100.878 73.1016 101.268 73.4557 101.539 73.9141C101.815 74.3672 101.953 74.8984 101.953 75.5078C101.953 75.8411 101.896 76.1797 101.781 76.5234C101.672 76.862 101.518 77.2005 101.32 77.5391C101.128 77.8776 100.901 78.2109 100.641 78.5391C100.385 78.8672 100.112 79.1901 99.8203 79.5078L96.7734 82.8125H102.477Z" fill="black"/>
<path d="M178.699 81.1567H180.293C180.21 81.9204 179.991 82.6038 179.637 83.207C179.283 83.8102 178.782 84.2889 178.135 84.6431C177.487 84.9917 176.679 85.166 175.711 85.166C175.003 85.166 174.358 85.0332 173.777 84.7676C173.201 84.502 172.706 84.1257 172.291 83.6387C171.876 83.1462 171.555 82.5568 171.328 81.8706C171.107 81.1789 170.996 80.4097 170.996 79.563V78.3594C170.996 77.5127 171.107 76.7463 171.328 76.0601C171.555 75.3683 171.879 74.7762 172.299 74.2837C172.725 73.7912 173.237 73.4121 173.835 73.1465C174.433 72.8809 175.105 72.748 175.852 72.748C176.765 72.748 177.537 72.9196 178.168 73.2627C178.799 73.6058 179.289 74.0817 179.637 74.6904C179.991 75.2936 180.21 75.9937 180.293 76.7905H178.699C178.622 76.2261 178.478 75.7419 178.268 75.3379C178.057 74.9284 177.758 74.613 177.371 74.3916C176.984 74.1702 176.477 74.0596 175.852 74.0596C175.315 74.0596 174.842 74.1619 174.433 74.3667C174.029 74.5715 173.688 74.862 173.412 75.2383C173.14 75.6146 172.936 76.0656 172.797 76.5913C172.659 77.117 172.59 77.7008 172.59 78.3428V79.563C172.59 80.1551 172.651 80.7113 172.772 81.2314C172.9 81.7516 173.091 82.2082 173.345 82.6011C173.6 82.994 173.924 83.3039 174.316 83.5308C174.709 83.7521 175.174 83.8628 175.711 83.8628C176.392 83.8628 176.934 83.7549 177.338 83.5391C177.742 83.3232 178.046 83.0133 178.251 82.6094C178.461 82.2054 178.611 81.7212 178.699 81.1567Z" fill="#42483D"/>
<path d="M159.333 85C158.689 85 158.139 84.7722 157.683 84.3167C157.228 83.8611 157 83.3111 157 82.6667C157 82.0222 157.228 81.4722 157.683 81.0167C158.139 80.5611 158.689 80.3333 159.333 80.3333H160.333V77.6667H159.333C158.689 77.6667 158.139 77.4389 157.683 76.9833C157.228 76.5278 157 75.9778 157 75.3333C157 74.6889 157.228 74.1389 157.683 73.6833C158.139 73.2278 158.689 73 159.333 73C159.978 73 160.528 73.2278 160.983 73.6833C161.439 74.1389 161.667 74.6889 161.667 75.3333V76.3333H164.333V75.3333C164.333 74.6889 164.561 74.1389 165.017 73.6833C165.472 73.2278 166.022 73 166.667 73C167.311 73 167.861 73.2278 168.317 73.6833C168.772 74.1389 169 74.6889 169 75.3333C169 75.9778 168.772 76.5278 168.317 76.9833C167.861 77.4389 167.311 77.6667 166.667 77.6667H165.667V80.3333H166.667C167.311 80.3333 167.861 80.5611 168.317 81.0167C168.772 81.4722 169 82.0222 169 82.6667C169 83.3111 168.772 83.8611 168.317 84.3167C167.861 84.7722 167.311 85 166.667 85C166.022 85 165.472 84.7722 165.017 84.3167C164.561 83.8611 164.333 83.3111 164.333 82.6667V81.6667H161.667V82.6667C161.667 83.3111 161.439 83.8611 160.983 84.3167C160.528 84.7722 159.978 85 159.333 85ZM159.333 83.6667C159.611 83.6667 159.847 83.5694 160.042 83.375C160.236 83.1806 160.333 82.9444 160.333 82.6667V81.6667H159.333C159.056 81.6667 158.819 81.7639 158.625 81.9583C158.431 82.1528 158.333 82.3889 158.333 82.6667C158.333 82.9444 158.431 83.1806 158.625 83.375C158.819 83.5694 159.056 83.6667 159.333 83.6667ZM166.667 83.6667C166.944 83.6667 167.181 83.5694 167.375 83.375C167.569 83.1806 167.667 82.9444 167.667 82.6667C167.667 82.3889 167.569 82.1528 167.375 81.9583C167.181 81.7639 166.944 81.6667 166.667 81.6667H165.667V82.6667C165.667 82.9444 165.764 83.1806 165.958 83.375C166.153 83.5694 166.389 83.6667 166.667 83.6667ZM161.667 80.3333H164.333V77.6667H161.667V80.3333ZM159.333 76.3333H160.333V75.3333C160.333 75.0556 160.236 74.8194 160.042 74.625C159.847 74.4306 159.611 74.3333 159.333 74.3333C159.056 74.3333 158.819 74.4306 158.625 74.625C158.431 74.8194 158.333 75.0556 158.333 75.3333C158.333 75.6111 158.431 75.8472 158.625 76.0417C158.819 76.2361 159.056 76.3333 159.333 76.3333ZM165.667 76.3333H166.667C166.944 76.3333 167.181 76.2361 167.375 76.0417C167.569 75.8472 167.667 75.6111 167.667 75.3333C167.667 75.0556 167.569 74.8194 167.375 74.625C167.181 74.4306 166.944 74.3333 166.667 74.3333C166.389 74.3333 166.153 74.4306 165.958 74.625C165.764 74.8194 165.667 75.0556 165.667 75.3333V76.3333Z" fill="#42483D"/>
<path d="M60.9375 113.625V125H59.4297V113.625H60.9375ZM67 116.547V117.656H62.4297V116.547H67ZM63.9766 114.492H65.4219V122.906C65.4219 123.193 65.4661 123.409 65.5547 123.555C65.6432 123.701 65.7578 123.797 65.8984 123.844C66.0391 123.891 66.1901 123.914 66.3516 123.914C66.4714 123.914 66.5964 123.904 66.7266 123.883C66.862 123.857 66.9635 123.836 67.0312 123.82L67.0391 125C66.9245 125.036 66.7734 125.07 66.5859 125.102C66.4036 125.138 66.1823 125.156 65.9219 125.156C65.5677 125.156 65.2422 125.086 64.9453 124.945C64.6484 124.805 64.4115 124.57 64.2344 124.242C64.0625 123.909 63.9766 123.461 63.9766 122.898V114.492ZM72.2031 125.156C71.6146 125.156 71.0807 125.057 70.6016 124.859C70.1276 124.656 69.7188 124.372 69.375 124.008C69.0365 123.643 68.776 123.211 68.5938 122.711C68.4115 122.211 68.3203 121.664 68.3203 121.07V120.742C68.3203 120.055 68.4219 119.443 68.625 118.906C68.8281 118.365 69.1042 117.906 69.4531 117.531C69.8021 117.156 70.1979 116.872 70.6406 116.68C71.0833 116.487 71.5417 116.391 72.0156 116.391C72.6198 116.391 73.1406 116.495 73.5781 116.703C74.0208 116.911 74.3828 117.203 74.6641 117.578C74.9453 117.948 75.1536 118.385 75.2891 118.891C75.4245 119.391 75.4922 119.938 75.4922 120.531V121.18H69.1797V120H74.0469V119.891C74.026 119.516 73.9479 119.151 73.8125 118.797C73.6823 118.443 73.474 118.151 73.1875 117.922C72.901 117.693 72.5104 117.578 72.0156 117.578C71.6875 117.578 71.3854 117.648 71.1094 117.789C70.8333 117.924 70.5964 118.128 70.3984 118.398C70.2005 118.669 70.0469 119 69.9375 119.391C69.8281 119.781 69.7734 120.232 69.7734 120.742V121.07C69.7734 121.471 69.8281 121.849 69.9375 122.203C70.0521 122.552 70.2161 122.859 70.4297 123.125C70.6484 123.391 70.9115 123.599 71.2188 123.75C71.5312 123.901 71.8854 123.977 72.2812 123.977C72.7917 123.977 73.224 123.872 73.5781 123.664C73.9323 123.456 74.2422 123.177 74.5078 122.828L75.3828 123.523C75.2005 123.799 74.9688 124.062 74.6875 124.312C74.4062 124.562 74.0599 124.766 73.6484 124.922C73.2422 125.078 72.7604 125.156 72.2031 125.156ZM78.6172 118.227V125H77.1641V116.547H78.5391L78.6172 118.227ZM78.3203 120.453L77.6484 120.43C77.6536 119.852 77.7292 119.318 77.875 118.828C78.0208 118.333 78.237 117.904 78.5234 117.539C78.8099 117.174 79.1667 116.893 79.5938 116.695C80.0208 116.492 80.5156 116.391 81.0781 116.391C81.474 116.391 81.8385 116.448 82.1719 116.562C82.5052 116.672 82.7943 116.846 83.0391 117.086C83.2839 117.326 83.474 117.633 83.6094 118.008C83.7448 118.383 83.8125 118.836 83.8125 119.367V125H82.3672V119.438C82.3672 118.995 82.2917 118.641 82.1406 118.375C81.9948 118.109 81.7865 117.917 81.5156 117.797C81.2448 117.672 80.9271 117.609 80.5625 117.609C80.1354 117.609 79.7786 117.685 79.4922 117.836C79.2057 117.987 78.9766 118.195 78.8047 118.461C78.6328 118.727 78.5078 119.031 78.4297 119.375C78.3568 119.714 78.3203 120.073 78.3203 120.453ZM83.7969 119.656L82.8281 119.953C82.8333 119.49 82.9089 119.044 83.0547 118.617C83.2057 118.19 83.4219 117.81 83.7031 117.477C83.9896 117.143 84.3411 116.88 84.7578 116.688C85.1745 116.49 85.651 116.391 86.1875 116.391C86.6406 116.391 87.0417 116.451 87.3906 116.57C87.7448 116.69 88.0417 116.875 88.2812 117.125C88.526 117.37 88.7109 117.685 88.8359 118.07C88.9609 118.456 89.0234 118.914 89.0234 119.445V125H87.5703V119.43C87.5703 118.956 87.4948 118.589 87.3438 118.328C87.1979 118.062 86.9896 117.878 86.7188 117.773C86.4531 117.664 86.1354 117.609 85.7656 117.609C85.4479 117.609 85.1667 117.664 84.9219 117.773C84.6771 117.883 84.4714 118.034 84.3047 118.227C84.138 118.414 84.0104 118.63 83.9219 118.875C83.8385 119.12 83.7969 119.38 83.7969 119.656ZM97.1328 118.602H98.1641C98.6693 118.602 99.0859 118.518 99.4141 118.352C99.7474 118.18 99.9948 117.948 100.156 117.656C100.323 117.359 100.406 117.026 100.406 116.656C100.406 116.219 100.333 115.852 100.188 115.555C100.042 115.258 99.8229 115.034 99.5312 114.883C99.2396 114.732 98.8698 114.656 98.4219 114.656C98.0156 114.656 97.6562 114.737 97.3438 114.898C97.0365 115.055 96.7943 115.279 96.6172 115.57C96.4453 115.862 96.3594 116.206 96.3594 116.602H94.9141C94.9141 116.023 95.0599 115.497 95.3516 115.023C95.6432 114.549 96.0521 114.172 96.5781 113.891C97.1094 113.609 97.724 113.469 98.4219 113.469C99.1094 113.469 99.7109 113.591 100.227 113.836C100.742 114.076 101.143 114.435 101.43 114.914C101.716 115.388 101.859 115.979 101.859 116.688C101.859 116.974 101.792 117.281 101.656 117.609C101.526 117.932 101.32 118.234 101.039 118.516C100.763 118.797 100.404 119.029 99.9609 119.211C99.5182 119.388 98.987 119.477 98.3672 119.477H97.1328V118.602ZM97.1328 119.789V118.922H98.3672C99.0911 118.922 99.6901 119.008 100.164 119.18C100.638 119.352 101.01 119.581 101.281 119.867C101.557 120.154 101.75 120.469 101.859 120.812C101.974 121.151 102.031 121.49 102.031 121.828C102.031 122.359 101.94 122.831 101.758 123.242C101.581 123.654 101.328 124.003 101 124.289C100.677 124.576 100.297 124.792 99.8594 124.938C99.4219 125.083 98.9453 125.156 98.4297 125.156C97.9349 125.156 97.4688 125.086 97.0312 124.945C96.599 124.805 96.2161 124.602 95.8828 124.336C95.5495 124.065 95.2891 123.734 95.1016 123.344C94.9141 122.948 94.8203 122.497 94.8203 121.992H96.2656C96.2656 122.388 96.3516 122.734 96.5234 123.031C96.7005 123.328 96.9505 123.56 97.2734 123.727C97.6016 123.888 97.987 123.969 98.4297 123.969C98.8724 123.969 99.2526 123.893 99.5703 123.742C99.8932 123.586 100.141 123.352 100.312 123.039C100.49 122.727 100.578 122.333 100.578 121.859C100.578 121.385 100.479 120.997 100.281 120.695C100.083 120.388 99.8021 120.161 99.4375 120.016C99.0781 119.865 98.6536 119.789 98.1641 119.789H97.1328Z" fill="black"/>
<defs>
<filter id="filter0_d_0_1" x="8" y="10" width="184" height="187" filterUnits="userSpaceOnUse" color-interpolation-filters="sRGB">
<feFlood flood-opacity="0" result="BackgroundImageFix"/>
<feColorMatrix in="SourceAlpha" type="matrix" values="0 0 0 0 0 0 0 0 0 0 0 0 0 0 0 0 0 0 127 0" result="hardAlpha"/>
<feOffset dy="4"/>
<feGaussianBlur stdDeviation="2"/>
<feComposite in2="hardAlpha" operator="out"/>
<feColorMatrix type="matrix" values="0 0 0 0 0 0 0 0 0 0 0 0 0 0 0 0 0 0 0.25 0"/>
<feBlend mode="normal" in2="BackgroundImageFix" result="effect1_dropShadow_0_1"/>
<feBlend mode="normal" in="SourceGraphic" in2="effect1_dropShadow_0_1" result="shape"/>
</filter>
</defs>
</svg>
