<svg width="250" height="240" viewBox="0 0 250 240" fill="none" xmlns="http://www.w3.org/2000/svg">
<g clip-path="url(#clip0_1_2)">
<rect width="250" height="240" fill="white"/>
<path fill-rule="evenodd" clip-rule="evenodd" d="M43.4745 33.3906C37.4196 30.7841 30.3722 33.1223 27.0762 38.8313L24.2528 43.7214C20.9855 49.3806 22.427 56.5857 27.62 60.5524L33.1877 64.8052C32.0957 70.5072 32.0192 76.4181 33.036 82.2473L27.8218 86.1344C22.5363 90.0747 21.037 97.3476 24.3333 103.057L27.1554 107.945C30.423 113.605 37.3844 115.959 43.4164 113.444L49.4667 110.921C53.8564 114.64 58.8336 117.505 64.1322 119.444L64.8482 125.535C65.6178 132.083 71.1667 137.018 77.7593 137.018L83.4034 137.018C89.9387 137.018 95.4581 132.166 96.2961 125.685L97.0814 119.611C99.8063 118.638 102.482 117.407 105.077 115.909C107.612 114.445 109.964 112.788 112.127 110.965L117.739 113.305C123.771 115.82 130.732 113.466 134 107.806L136.822 102.918C140.118 97.2088 138.619 89.9359 133.333 85.9956L128.57 82.4451C129.58 76.816 129.602 70.9935 128.562 65.2553L133.772 61.2768C138.966 57.3104 140.408 50.1046 137.141 44.4449L134.319 39.557C131.022 33.8476 123.974 31.5096 117.919 34.1168L111.946 36.6889C107.345 32.8432 102.111 29.9278 96.5451 28.0236L95.6703 21.2635C94.8316 14.7829 89.3125 9.93197 82.7778 9.93198L77.1312 9.93198C70.539 9.93198 64.9904 14.8661 64.2202 21.413L63.3688 28.6503C61.0592 29.5445 58.7886 30.6275 56.5769 31.9044C54.3044 33.2164 52.1783 34.6846 50.2042 36.2875L43.4745 33.3906ZM96.8483 64.6566C101.957 73.5051 98.9253 84.8195 90.0769 89.9281C81.2285 95.0367 69.914 92.0051 64.8054 83.1566C59.6967 74.3082 62.7285 62.9938 71.5769 57.8852C80.4253 52.7765 91.7397 55.8082 96.8483 64.6566Z" fill="black"/>
<path fill-rule="evenodd" clip-rule="evenodd" d="M128.137 126.324C122.082 123.718 115.035 126.056 111.739 131.765L108.916 136.655C105.648 142.314 107.09 149.52 112.283 153.486L117.851 157.739C116.759 163.441 116.682 169.352 117.699 175.181L112.485 179.068C107.199 183.009 105.7 190.281 108.996 195.991L111.818 200.879C115.086 206.538 122.047 208.893 128.079 206.378L134.13 203.855C138.519 207.574 143.497 210.439 148.795 212.378L149.511 218.469C150.281 225.017 155.83 229.952 162.422 229.952L168.066 229.952C174.602 229.952 180.121 225.1 180.959 218.619L181.744 212.545C184.469 211.572 187.145 210.341 189.74 208.843C192.275 207.379 194.627 205.722 196.79 203.899L202.401 206.239C208.433 208.754 215.395 206.4 218.663 200.74L221.485 195.852C224.781 190.143 223.282 182.87 217.996 178.929L213.233 175.379C214.243 169.75 214.265 163.927 213.225 158.189L218.435 154.211C223.629 150.244 225.071 143.038 221.803 137.379L218.981 132.491C215.685 126.781 208.637 124.443 202.582 127.051L196.608 129.623C192.008 125.777 186.774 122.862 181.208 120.957L180.333 114.197C179.494 107.717 173.975 102.866 167.441 102.866L161.794 102.866C155.202 102.866 149.653 107.8 148.883 114.347L148.032 121.584C145.722 122.478 143.451 123.561 141.24 124.838C138.967 126.15 136.841 127.618 134.867 129.221L128.137 126.324ZM181.511 157.59C186.62 166.439 183.588 177.753 174.74 182.862C165.891 187.971 154.577 184.939 149.468 176.09C144.36 167.242 147.391 155.928 156.24 150.819C165.088 145.71 176.403 148.742 181.511 157.59Z" fill="black"/>
</g>
<defs>
<clipPath id="clip0_1_2">
<rect width="250" height="240" fill="white"/>
</clipPath>
</defs>
</svg>
