<svg width="250" height="240" viewBox="0 0 250 240" fill="none" xmlns="http://www.w3.org/2000/svg">
<rect width="250" height="240" fill="white"/>
<path fill-rule="evenodd" clip-rule="evenodd" d="M245 119.5C245 119.5 191.274 186 125 186C58.7258 186 5 119.5 5 119.5C5 119.5 58.7258 53 125 53C191.274 53 245 119.5 245 119.5ZM175 120C175 147.614 152.614 170 125 170C97.3858 170 75 147.614 75 120C75 92.3858 97.3858 70 125 70C152.614 70 175 92.3858 175 120ZM126 97.5C126 109.926 115.926 120 103.5 120C100.837 120 98.2815 119.537 95.9103 118.688C94.55 118.2 93 119.055 93 120.5C93 138.449 107.551 153 125.5 153C143.449 153 158 138.449 158 120.5C158 102.551 143.449 88 125.5 88C124.745 88 124.265 88.7885 124.534 89.4941C125.481 91.9814 126 94.6801 126 97.5Z" fill="black"/>
</svg>
