<svg width="24" height="24" viewBox="0 0 24 24" fill="none" xmlns="http://www.w3.org/2000/svg">
<rect width="24" height="24" fill="white"/>
<path d="M18.25 18.5H5.75C5.61193 18.5 5.5 18.3881 5.5 18.25V5.75C5.5 5.61193 5.61193 5.5 5.75 5.5H18.25C18.3881 5.5 18.5 5.61193 18.5 5.75V18.25C18.5 18.3881 18.3881 18.5 18.25 18.5Z" stroke="black" stroke-linecap="round"/>
<path d="M3.5 7.25V3.75C3.5 3.61193 3.61193 3.5 3.75 3.5H7.25C7.38807 3.5 7.5 3.61193 7.5 3.75V7.25C7.5 7.38807 7.38807 7.5 7.25 7.5H3.75C3.61193 7.5 3.5 7.38807 3.5 7.25Z" fill="white" stroke="black" stroke-linecap="round"/>
<path d="M16.5 7.25V3.75C16.5 3.61193 16.6119 3.5 16.75 3.5H20.25C20.3881 3.5 20.5 3.61193 20.5 3.75V7.25C20.5 7.38807 20.3881 7.5 20.25 7.5H16.75C16.6119 7.5 16.5 7.38807 16.5 7.25Z" fill="white" stroke="black" stroke-linecap="round"/>
<path d="M3.5 20.25V16.75C3.5 16.6119 3.61193 16.5 3.75 16.5H7.25C7.38807 16.5 7.5 16.6119 7.5 16.75V20.25C7.5 20.3881 7.38807 20.5 7.25 20.5H3.75C3.61193 20.5 3.5 20.3881 3.5 20.25Z" fill="white" stroke="black" stroke-linecap="round"/>
<path d="M16.5 20.25V16.75C16.5 16.6119 16.6119 16.5 16.75 16.5H20.25C20.3881 16.5 20.5 16.6119 20.5 16.75V20.25C20.5 20.3881 20.3881 20.5 20.25 20.5H16.75C16.6119 20.5 16.5 20.3881 16.5 20.25Z" fill="white" stroke="black" stroke-linecap="round"/>
</svg>
