<svg width="24" height="24" viewBox="0 0 24 24" fill="none" xmlns="http://www.w3.org/2000/svg">
<rect width="24" height="24" fill="white"/>
<path d="M10 15C10 17.7614 12.2386 20 15 20C17.7614 20 20 17.7614 20 15C20 12.2386 17.7614 10 15 10C12.2386 10 10 12.2386 10 15Z" stroke="black"/>
<path d="M7 9C7 11.7614 9.23858 14 12 14C14.7614 14 17 11.7614 17 9C17 6.23858 14.7614 4 12 4C9.23858 4 7 6.23858 7 9Z" stroke="black"/>
<path d="M4 15C4 17.7614 6.23858 20 9 20C11.7614 20 14 17.7614 14 15C14 12.2386 11.7614 10 9 10C6.23858 10 4 12.2386 4 15Z" stroke="black"/>
</svg>
