<svg width="200" height="300" viewBox="0 0 200 300" fill="none" xmlns="http://www.w3.org/2000/svg">
<rect width="200" height="300" fill="#1E1E1E"/>
<g clip-path="url(#clip0_0_1)">
<path d="M0 50C0 22.3858 22.3858 0 50 0H100V100H50C22.3858 100 0 77.6142 0 50V50Z" fill="#F24E1E"/>
<path d="M100 0H150C177.614 0 200 22.3858 200 50V50C200 77.6142 177.614 100 150 100H100V0Z" fill="#FF7262"/>
<path d="M0 150C0 122.386 22.3858 100 50 100H100V200H50C22.3858 200 0 177.614 0 150V150Z" fill="#A259FF"/>
<rect x="100" y="100" width="100" height="100" rx="50" fill="#1ABCFE"/>
<path d="M0 250C0 222.386 22.3858 200 50 200H100V250C100 277.614 77.6142 300 50 300V300C22.3858 300 0 277.614 0 250V250Z" fill="#0ACF83" fill-opacity="0.811765"/>
</g>
<defs>
<clipPath id="clip0_0_1">
<rect width="200" height="300" fill="white"/>
</clipPath>
</defs>
</svg>
